<svg xmlns="http://www.w3.org/2000/svg" viewBox="-265.535 -24.984 1049.328 1049.328">
  <g transform="translate(-278.505027,1048.541451) scale(0.100000,-0.100000)" fill="#000000">
    <path d="M5190 10480 c-104 -15 -156 -30 -202 -59 -24 -15 -69 -39 -101 -54 -100 -46 -287 -221 -334 -312 -14 -27 -41 -71 -59 -96 -70 -95 -88 -235 -81 -607 7 -362 17 -418 107 -588 121 -226 295 -375 513 -438 194 -56 421 -59 614 -7 134 36 162 49 275 133 118 87 229 231 288 373 70 167 79 198 90 311 19 205 6 590 -23 670 -44 118 -116 256 -162 308 -86 100 -236 236 -259 236 -6 0 -52 23 -101 51 -56 32 -112 56 -154 65 -83 17 -326 26 -411 14z"/>
    <path d="M4912 7820 c-97 -10 -144 -24 -193 -55 -19 -13 -64 -37 -98 -55 -35 -17 -91 -55 -125 -83 -35 -29 -104 -86 -156 -127 -51 -41 -116 -95 -144 -120 -28 -25 -69 -59 -91 -75 -22 -16 -60 -46 -85 -67 -104 -88 -309 -254 -360 -291 -109 -81 -208 -181 -267 -272 -65 -100 -75 -121 -98 -215 -9 -36 -38 -112 -64 -170 -27 -58 -58 -143 -71 -190 -12 -47 -35 -111 -51 -143 -16 -32 -43 -103 -59 -159 -17 -56 -48 -141 -69 -188 -22 -47 -49 -119 -61 -160 -12 -41 -40 -114 -61 -161 -61 -136 -74 -196 -74 -344 0 -99 4 -142 18 -182 28 -81 108 -186 193 -253 103 -82 177 -105 334 -105 171 1 223 21 377 147 53 43 140 175 218 328 18 36 60 119 94 185 71 140 165 273 198 281 53 14 68 -31 77 -227 8 -150 -4 -234 -50 -356 -14 -37 -43 -141 -65 -232 -22 -91 -55 -213 -73 -272 -19 -59 -42 -144 -51 -190 -20 -100 -34 -152 -68 -241 -14 -37 -38 -125 -52 -195 -15 -70 -46 -186 -71 -258 -24 -71 -55 -184 -68 -250 -28 -133 -34 -157 -65 -232 -11 -29 -32 -99 -46 -155 -30 -121 -46 -164 -79 -217 -14 -21 -38 -78 -56 -127 -17 -48 -48 -120 -70 -159 -21 -38 -47 -102 -59 -140 -11 -39 -35 -93 -52 -120 -18 -28 -45 -84 -61 -125 -16 -41 -55 -131 -88 -200 -146 -311 -179 -431 -167 -615 9 -129 29 -194 87 -280 51 -76 152 -170 220 -205 57 -29 148 -50 250 -56 106 -7 232 16 313 57 93 48 201 135 233 191 17 29 50 85 72 123 23 39 53 102 67 140 15 39 44 99 65 135 21 36 51 97 66 135 15 39 40 90 57 114 16 24 45 82 64 130 19 47 48 103 63 124 16 22 43 76 61 120 18 45 48 105 66 132 18 28 46 87 63 133 17 46 41 104 54 130 13 26 36 92 51 147 36 128 58 176 95 204 17 12 41 44 55 71 14 28 37 56 53 64 54 28 69 55 75 135 4 66 8 78 31 98 20 17 40 23 73 23 41 0 50 -5 85 -41 66 -69 155 -269 195 -439 19 -80 52 -208 73 -285 21 -77 48 -189 60 -249 12 -59 41 -177 65 -262 25 -85 54 -205 65 -266 12 -62 37 -160 55 -218 19 -58 43 -143 54 -190 27 -118 35 -135 89 -197 125 -145 208 -207 311 -234 122 -32 249 -36 351 -10 107 27 178 68 264 155 84 86 104 117 145 231 44 121 49 200 23 340 -12 61 -31 169 -42 240 -11 72 -43 224 -71 340 -28 115 -57 255 -64 310 -14 103 -68 376 -85 431 -6 17 -26 121 -45 231 -22 132 -44 225 -63 274 -16 41 -44 125 -61 186 -17 62 -46 150 -65 195 -19 46 -48 130 -65 188 -17 58 -44 136 -61 173 -16 36 -44 115 -61 174 -17 60 -46 143 -66 186 -19 42 -46 117 -59 165 -14 48 -43 126 -64 173 -22 48 -49 124 -60 170 -12 46 -39 120 -60 164 -50 102 -60 166 -56 379 3 151 5 171 21 183 11 7 25 13 32 13 14 0 73 -58 73 -71 0 -12 54 -28 115 -34 101 -10 113 -15 168 -62 106 -90 234 -136 490 -172 81 -12 199 -35 264 -52 82 -22 143 -31 198 -32 75 -1 87 3 186 47 125 55 145 70 223 155 67 73 103 143 117 233 13 78 5 225 -17 298 -22 76 -108 188 -185 242 -106 75 -113 78 -184 100 -38 11 -100 36 -136 54 -36 18 -104 45 -150 60 -46 15 -115 43 -154 62 -38 19 -118 49 -177 67 -59 18 -137 50 -175 72 -37 22 -89 52 -115 67 -50 28 -69 48 -132 145 -99 152 -144 221 -181 280 -22 35 -59 91 -83 125 -23 33 -55 80 -70 104 -15 24 -46 67 -68 95 -23 29 -58 84 -77 123 -20 39 -47 84 -60 100 -14 16 -40 54 -58 85 -74 122 -295 278 -439 309 -69 15 -477 22 -588 10z"/>
  </g>
</svg>
