<svg xmlns="http://www.w3.org/2000/svg" viewBox="-159.942 -28.869 1212.499 1212.499">
  <g transform="translate(-49.299493,1321.631016) scale(0.100000,-0.100000)" fill="#000000">
    <path d="M4829 13210 c-102 -16 -273 -73 -359 -118 -223 -119 -358 -270 -460 -514 -34 -83 -42 -116 -55 -234 -16 -140 -10 -270 16 -379 18 -71 72 -188 126 -272 149 -228 335 -358 612 -430 130 -33 142 -35 266 -31 380 14 711 221 876 549 22 45 55 134 72 198 28 103 32 130 31 241 -2 317 -151 622 -386 791 -78 56 -208 126 -259 139 -24 6 -78 22 -121 35 -87 27 -266 40 -359 25z"/>
    <path d="M8944 11650 c-28 -4 -80 -17 -115 -29 -35 -11 -111 -30 -168 -41 -57 -11 -127 -28 -155 -39 -28 -10 -89 -26 -136 -36 -47 -9 -119 -27 -160 -40 -41 -12 -97 -26 -125 -29 -27 -4 -99 -20 -160 -36 -60 -15 -150 -36 -200 -45 -49 -9 -112 -23 -140 -31 -27 -9 -108 -28 -180 -44 -132 -28 -272 -61 -445 -105 -52 -13 -140 -33 -195 -45 -55 -12 -127 -30 -160 -40 -33 -10 -99 -26 -146 -34 -47 -9 -119 -28 -160 -43 -70 -26 -83 -28 -229 -26 -85 0 -247 8 -360 17 -253 20 -972 23 -1265 6 -303 -19 -671 -17 -775 4 -47 9 -128 23 -180 32 -87 14 -257 52 -465 104 -44 11 -107 27 -140 35 -33 8 -112 27 -175 41 -190 43 -349 80 -465 109 -234 57 -352 85 -415 95 -35 7 -98 22 -140 35 -41 13 -95 27 -120 31 -25 3 -92 20 -150 36 -58 17 -135 36 -172 44 -37 7 -117 27 -178 44 -101 29 -121 32 -223 29 -103 -4 -116 -6 -162 -34 -27 -17 -73 -54 -101 -83 -46 -47 -55 -64 -74 -135 -40 -149 -9 -258 97 -340 69 -53 209 -120 297 -143 34 -9 86 -26 116 -39 52 -22 120 -45 335 -115 188 -61 252 -82 330 -110 44 -16 100 -34 125 -41 25 -6 70 -21 100 -34 30 -12 89 -34 130 -48 41 -14 95 -32 120 -40 25 -8 72 -24 105 -35 33 -10 83 -29 110 -40 49 -20 101 -38 255 -87 41 -14 140 -48 220 -76 80 -28 196 -67 259 -86 63 -19 122 -38 130 -43 9 -4 52 -17 96 -29 119 -33 210 -84 260 -149 23 -29 47 -70 54 -90 6 -20 18 -156 26 -302 8 -146 19 -301 25 -345 15 -118 29 -354 40 -665 5 -151 21 -390 35 -530 25 -236 26 -280 22 -595 -4 -267 -8 -355 -21 -409 -9 -38 -25 -173 -36 -300 -11 -127 -29 -292 -40 -366 -11 -74 -31 -254 -45 -400 -15 -146 -30 -292 -35 -325 -5 -33 -19 -159 -30 -280 -11 -121 -29 -290 -40 -375 -10 -85 -26 -236 -35 -335 -9 -99 -27 -266 -40 -371 -13 -105 -31 -271 -40 -370 -8 -98 -23 -246 -34 -329 -10 -82 -22 -181 -25 -220 -17 -192 -47 -489 -51 -494 -12 -20 -60 -593 -60 -716 1 -208 88 -348 262 -421 62 -26 78 -29 188 -29 119 0 121 1 197 38 56 28 93 55 136 101 73 78 104 156 133 335 11 69 29 158 39 196 11 39 26 122 35 185 9 63 27 160 40 216 13 55 29 143 35 195 6 51 22 135 35 184 14 50 32 137 39 195 8 58 26 157 40 221 14 63 32 160 41 215 8 54 25 136 35 182 11 46 29 145 41 220 11 75 29 173 39 217 10 44 26 130 35 190 9 61 25 144 35 185 10 41 26 122 34 180 8 58 27 156 40 217 14 62 32 164 41 227 9 63 25 145 35 182 11 38 27 123 35 189 18 142 30 182 56 195 23 13 53 -1 69 -29 5 -11 19 -77 30 -148 12 -70 30 -159 40 -198 11 -38 26 -123 35 -188 9 -65 23 -136 31 -159 7 -22 23 -95 34 -162 11 -66 33 -188 50 -271 56 -282 81 -410 110 -575 16 -91 34 -178 39 -195 6 -16 22 -96 35 -176 14 -80 32 -170 40 -200 9 -30 25 -112 36 -184 11 -71 31 -172 44 -225 13 -52 32 -140 41 -194 9 -55 25 -131 35 -170 11 -39 26 -116 34 -171 9 -55 22 -122 30 -150 8 -27 26 -116 40 -197 14 -80 40 -204 56 -275 51 -211 124 -307 286 -371 105 -42 205 -44 311 -8 90 31 107 40 169 93 61 52 119 141 134 209 14 57 6 240 -16 379 -19 127 -42 318 -54 470 -6 72 -20 190 -30 263 -11 72 -29 230 -40 349 -11 119 -27 255 -35 302 -8 48 -26 209 -40 360 -14 151 -32 319 -40 375 -8 56 -24 200 -35 321 -12 121 -29 288 -40 370 -10 83 -28 249 -40 370 -11 121 -25 241 -30 267 -5 25 -19 131 -30 235 -11 103 -27 226 -35 273 -36 208 -84 685 -92 930 -3 91 -1 246 6 345 6 99 16 279 21 400 23 507 32 661 50 865 10 118 24 305 30 415 30 568 28 542 56 598 15 29 35 64 46 79 23 34 160 100 260 127 40 10 96 28 123 40 28 11 88 31 135 45 109 32 258 81 335 111 67 26 185 65 290 96 39 12 93 32 122 46 29 13 84 33 124 44 39 11 87 28 108 38 20 11 56 24 81 30 25 7 79 25 120 41 41 15 136 47 210 70 74 23 160 51 190 62 30 11 96 32 145 48 50 15 151 49 225 74 74 26 176 59 225 75 50 15 101 33 113 40 13 7 48 21 76 31 66 22 144 81 191 143 47 62 64 146 48 240 -21 122 -130 250 -241 284 -48 14 -144 15 -228 3z"/>
  </g>
</svg>
